<?xml version="1.0" encoding="utf-8"?>
<!-- Generator: Adobe Illustrator 21.0.0, SVG Export Plug-In . SVG Version: 6.00 Build 0)  -->
<svg version="1.1" id="图层_1" xmlns="http://www.w3.org/2000/svg" xmlns:xlink="http://www.w3.org/1999/xlink" x="0px" y="0px"
	 viewBox="0 0 5000 5000" enable-background="new 0 0 5000 5000" xml:space="preserve">
<g>
	<polygon fill="#DAEBC5" points="4699,4405 4460.2,2157.8 3481.9,2157.8 3480.2,2209.8 3480.1,2214.8 3478.5,2219.5 3477,2223.8 
		3474.7,2228.4 3472.7,2232.2 3470.2,2235.4 3467.1,2238.9 3464,2242 3460.1,2245.3 3456,2247.9 3449.6,2251.3 3443.4,2253.3 
		3437.9,2254.6 3433.3,2255.1 3428.4,2255 3355.7,2252.7 3286.2,2250.5 3280.8,2249.9 3275.8,2249.1 3271.9,2247.7 3266.7,2245.9 
		3260.7,2242.4 3255,2237.9 3250.7,2233.4 3245.6,2225.9 3242.5,2219.7 3240.3,2214.6 3239,2207.1 3243,2080.9 3243.8,2075.1 
		3245.4,2069.2 3247.5,2064.2 3250.6,2058.3 3254.6,2053.1 3258.8,2048.6 3264.8,2044.2 3269.1,2041.8 3274,2039.3 3280.8,2036.9 
		3287.6,2035.6 3438.8,2040.3 3446.3,2041.4 3452.8,2043.8 3457.7,2046.1 3461.9,2048.6 3465.2,2051.1 3468.3,2053.7 3471.3,2057.2 
		3474.4,2060.6 3476.7,2064.3 3478.8,2067.8 3481,2072.9 3482.7,2077.2 3483.3,2080.6 3484.2,2084.5 3481.9,2157.8 4460.2,2157.8 
		4295.7,609.2 2381.7,557.2 2369.7,1038.4 2403.2,1040.6 2458.4,1045.1 2445.4,1200.5 2366.5,1195.7 2366.7,1188.5 2355.5,1183.4 
		2345.3,1179.6 2336.4,1177.3 2327,1176 2320.8,1175.1 2312.5,1175 2308.3,1174.9 2302.5,1175.4 2296.5,1175.8 2289.7,1176.8 
		2282.4,1178.1 2277.8,1179.5 2272.5,1181.1 2260.7,1185.5 2260.5,1192.7 2181.3,1192.3 2174.3,1036.3 2201,1035.6 2244.3,1034.4 
		2275,1035.4 2292.3,1035.8 2330,1036.6 2356.6,1037.6 2369.7,1038.4 2381.7,557.2 502.8,505.9 460,2041 1094.3,2063.3 1097,1965.1 
		1579.9,1978.2 1574.2,2190.8 1321,2184 1091.2,2177.8 1094.3,2063.3 460,2041 389.7,4592.8 1781.9,4626.5 1871.2,3369.4 
		1748,3378.4 1749.9,3318.1 1752.9,3218.6 1881.7,3222.6 1896.1,3019.1 1762.9,3015.1 1765.1,2940.5 1767.4,2867.7 2059.9,2876.7 
		2055.3,3024 1896.1,3019.1 1881.7,3222.6 2049.1,3227.7 2045.1,3356.8 1871.2,3369.4 1781.9,4626.5 2192.5,4636.4 2235.9,3565.3 
		2129.2,3561.8 2129.2,3469 2130.6,3409.5 2134,3298.8 2139.8,3108.5 2254.3,3112 2257,3045 2231.5,3044.2 2140.1,3041.4 
		2145.5,2865.5 2383.6,2872.8 2378.2,3048.7 2257,3045 2254.3,3112 2374.6,3115.7 2359.4,3569.5 2235.9,3565.3 2192.5,4636.4 
		2601.8,4646.2 2601.8,3389.4 2452.9,3369.4 2456.9,3240.3 2601.8,3244.7 2601.8,3040.7 2463.1,3036.5 2467.6,2889.2 2763.7,2898.3 
		2761.1,2983.2 2761.1,2983.2 2759.2,3045.6 2601.8,3040.7 2601.8,3244.7 2753,3249.3 2751,3313.4 2748.1,3409.1 2601.8,3389.4 
		2601.8,4646.2 4437.2,4690.3 	"/>
	<polygon fill="#E1F9FF" points="1323.9,4467.3 1026.7,4453.8 853.3,4405.2 694.2,4254.6 655.7,4158.9 622,4024.3 622.5,3908.4 
		642.3,3521.4 645.6,3494.2 668.1,3453.3 687,3426.1 713.3,3404 745.8,3390.2 1066.5,3274.1 1313.9,3154.3 1345.8,3130.1 
		1368,3087.4 1367,2807.4 1346.7,2776.4 1313.2,2758 1280.2,2746.6 1121.8,2708 829,2708 813.7,2708 796.8,2714.4 774.3,2723 
		697,2725.7 675,2725 658.2,2714.7 649,2695 649,2666.3 655.3,2658 668.3,2654 1128.2,2654 1297.8,2695.4 1383.3,2733.6 
		1408.6,2762.6 1421,2791.3 1422,3100.4 1408,3137.2 1388.2,3165.9 1369.2,3184.2 1342.2,3200.6 1087.5,3323.9 1086.2,3324.4 
		744.7,3448 730.5,3460.7 715.1,3481.6 700.3,3511.6 695.7,3532.6 676.5,3910.5 681,4019 707.2,4142.2 739.8,4223.4 882,4334 
		1035.3,4400.2 1266.1,4410.7 1253.9,4222.9 1258,4210 1263.1,4200.4 1322.8,4181.3 1329.1,4201 1334,4225 1324.5,4237.4 1316,4249 
		1310.5,4261 	"/>
	<polygon fill="#F4F4F4" points="2348.2,1681.6 2258.2,1679.2 2263.8,1532.4 2353.8,1535.8 	"/>
	<polygon fill="#FCFCFC" points="2695,4633.5 2699.1,4624.7 2700.5,4614.5 2700.5,4422 2705.1,4406.3 2712.5,4392 2722.5,4380 
		2730.2,4372.7 2743,4364.5 2751.9,4359.8 2770.4,4352.7 2692.7,4352.9 2677.1,4350.4 2668,4348 2659,4342.4 2647.5,4334 
		2634.5,4318 2624.5,4296.5 2620,4275 2624,4086 2634,4053.5 2647.5,4030.5 2663,4013 2685.5,3998.5 2701.7,3993.2 2719,3988.5 
		2761.5,3987.9 2862.5,3989 2919,3990.9 2963.5,3995.3 2994,3999.2 3024.4,4006 2828.1,3933 2782.1,3910 2733,3874 2598,3758.5 
		2544,3724 2519.2,3714.1 2496.8,3710 2480.1,3708.7 2481.8,3579.1 2444.4,3575.9 2393.7,3570.9 2314.6,3566.2 2256.8,3562.7 
		2199.8,3562 2172,3561.7 2150,3561.4 2123.7,3561.4 2008.3,3564.3 2003,3696.2 1986.8,3696 1967.2,3699.2 1945,3705 1924.4,3713.2 
		1910,3719 1892,3730.5 1874,3743 1824,3783 1762,3831 1731,3849 1675.4,3878 1593,3911 1535,3932 1458.2,3953.7 1470.7,3952.2 
		1521.9,3950.4 1618,3951.5 1692,3951.5 1726,3954 1752.5,3961 1775,3971 1795,3985.5 1811.5,4003.5 1822.5,4019.5 1830,4034.5 
		1835.5,4057.5 1836.5,4085.5 1833,4231.5 1824.5,4271.5 1806,4300 1781.5,4314 1764,4320 1750.2,4321.5 1672.7,4321.3 1697,4331 
		1718,4347 1733,4368.5 1736.9,4380.4 1739,4396 1740.2,4415.5 1734,4598 1736.3,4608 1741,4614.5 1752.5,4621.5 1760,4625.6 
		2686.4,4646.7 2686.5,4646.6 	"/>
	<polygon fill="#FCFCFC" points="1876.8,1848.6 1988.6,1850.1 1994.8,1672 2605.9,1688.6 2601.3,1875.7 2707.6,1878.7 
		2686.1,2702.5 1851.8,2687.3 	"/>
	<polygon fill="#B2B2B2" points="5012.6,4513.7 5005.2,4444.1 4598.2,617.2 4295.7,608.2 4699.5,4406.3 4428.7,4687.5 389.7,4592.8 
		502.8,505.9 272.8,499.7 151.5,4886.8 266.5,4890 266.5,4890 266.5,4890 381.4,4893.1 381.5,4892.7 4553.3,4990.5 	"/>
	<polygon fill="#F4F4F4" points="4322.9,870.5 4305.3,700.9 950.8,602.9 887,601 849,605.3 820.2,615.4 782.9,639.4 751,673 
		732.7,710.7 723.8,773.1 714.3,1179.7 802.7,1179.7 814,880.9 820.3,836.4 837.3,807.9 848.8,795.1 871.4,780.6 885,775.9 
		910.2,773.1 969.1,774.8 1993.7,802 2038.4,863.8 2047.9,874.3 2095.7,838.5 2086.1,827.3 2070.5,804 2243,808.6 2242.6,822.4 
		2411.2,829.9 2411.4,813 2578.5,817.4 2560.9,843.2 2552.5,852.8 2594.1,896.7 2608.7,880 2650.4,819.2 3437.6,840.1 3466.9,843.9 
		3489,855.4 3509.5,871.8 3532,902.5 3538.9,918.5 3545.8,944.5 3549.1,971.8 3541.9,1259.2 3540.3,1283.8 3534.3,1317.4 
		3515.3,1368.8 3400.2,1618.8 3391.6,1637.5 3378,1652 3363.6,1657.1 3352,1658.5 3252,1653.1 3245,1841.1 3327.1,1844 
		3361.6,1841.2 3392,1835.1 3410.8,1825.3 3427,1813.1 3444.3,1794.6 3460.4,1769.1 3616,1413.1 3636,1355.1 3647,1300.7 
		3648.8,1270 3656.6,965.7 3663.8,938.8 3673.1,915.7 3690.3,891.2 3712.2,871.2 3742.2,856.3 3784.2,850.3 3825.4,856.8 3853,869 
		3884.7,897.8 3897.7,920.8 3937,1251.7 4024.9,1251.7 3992.3,971 3993.3,953.6 3997.9,938.7 4004.6,921.6 4012.2,909 4024.7,896.9 
		4039.4,884.9 4051.8,876.7 4062.2,870.8 4079.4,865.1 4096.2,862.5 4238.9,869.8 4249.7,872.3 4261.5,877.1 4288.2,894.4 
		4299.3,905.3 4306.5,914.1 4334.2,971.1 	"/>
	<polygon fill="#F4F4F4" points="2543.4,863.1 2526,876.9 2508.9,889.6 2510.4,852.5 2410.9,848.9 2411.2,829.9 2242.6,822.4 
		2242,844.3 2136,841 2135.2,877.7 2118.2,863.9 2101.9,845.7 2095.7,838.5 2047.9,874.3 2056.6,883.9 2077.1,906.8 2101.7,928 
		2133.7,949.3 2133,1038.1 2174.4,1036.3 2237.5,1034.6 2339.9,1036.8 2378.9,1039 2423.3,1042.2 2458.7,1045.1 2505,1049.3 
		2506.4,960.6 2532.6,947 2562.6,924.7 2585.3,906.7 2594.1,896.7 2552.5,852.8 	"/>
	<polygon fill="#F4F4F4" points="4279.3,3339.7 4284.3,3327 4291.3,3314 4301,3302.7 4307.3,3297.6 4317,3292.3 4324.7,3289.5 
		4335.3,3288 4371.6,3286.3 4454.6,3288.6 4484.3,3292.6 4503.9,3296.6 4525.4,3304.3 4536.9,3309.9 4566.6,3329.9 4590.3,3353.2 
		4553.6,3008.4 4547.3,3024.7 4538.6,3040.4 4529.9,3054.7 4519.9,3065.4 4504.6,3077.1 4490.9,3085.8 4474.9,3094.1 4464.8,3096.9 
		4452.3,3099.4 4432.3,3099.7 4302,3095 4289.7,3093 4275.7,3088.7 4259.7,3080 4247,3067.3 4236.3,3052 4233,3042.9 4024.9,1251.7 
		3937,1251.7 3952.9,1385.9 3953.3,1400.1 3949.1,1409.9 3937.3,1415.3 3900.1,1420.1 3908.1,1479.1 3947.2,1474.6 3954.9,1475.6 
		3962.7,1482.8 3965.5,1491.4 3966,1500.2 3980.5,1619.1 3980.1,1635.8 3975.5,1646.7 3971.1,1656 3956.1,1672 3943.1,1684 
		3924.1,1692 3904.1,1696.5 3884.1,1698.9 3574.6,1690 3571.7,1790 3897.2,1799.4 3926.2,1807 3944.2,1814 3963.2,1825 3981.2,1838 
		3995.2,1851 4003.2,1864 4010.1,1877 4011.9,1893.2 4023.5,1994.7 4023.8,2010 4023.1,2024.7 4019.8,2036.1 4014.1,2044.9 
		4005.4,2049.9 3986.1,2050.9 3975.8,2047.9 3968.1,2043.7 3962,2035.5 3957.7,2022.8 3955.9,2008.9 3944.6,1912.6 3586,1902.6 
		3582.4,1963.2 3649.4,1965.3 3638.8,2300.2 3668.9,2301.1 3670.8,2303.3 3672.3,2305.1 3674.4,2307.7 3675.7,2309.8 3677.1,2312.7 
		3678.9,2316.6 3679.5,2318.3 3680.6,2321.2 3681,2322.3 3681.9,2331.2 3681.9,2333.8 3681.8,2336.7 3681.5,2339.3 3681.2,2341.2 
		3680.4,2344 3679.8,2346.6 3679.3,2348.6 3678.4,2350.7 3677.4,2352.9 3676.1,2354.9 3672.1,2361.3 3670.7,2364.6 3669.4,2368.5 
		3668.6,2371.5 3667.5,2376.5 3667.3,2380.2 3667.3,2383.9 3667.4,2388.1 3668.1,2393.7 3668.2,2394.3 3670.3,2400.3 3672.6,2406.1 
		3675.6,2410.7 3679.1,2415.6 3681.2,2419.9 3682.8,2423.3 3683.9,2426 3685.2,2429.8 3685.8,2432.5 3686.4,2435 3686.8,2438.7 
		3686.9,2441.4 3686.8,2444.4 3686.7,2446 4000.4,2454 3978.7,2260.8 3980.8,2243.5 3986.9,2231.9 3995.9,2224.8 4006.8,2222.4 
		4018.9,2221.8 4027.9,2225.8 4036.3,2232 4043.9,2243.1 4049.8,2256.8 4056,2282.1 4140.9,3025.1 4140.1,3035.1 4138.8,3054.1 
		4132.8,3071.1 4125.8,3085.8 4117.5,3095.8 4106.2,3104.5 4091.2,3115.8 4077.5,3119.8 4047.2,3123.1 3715.5,3112.2 3692.8,3108.4 
		3682.4,3101.7 3676.3,3094.6 3656.1,3071.3 3637.4,3040 3624.1,3001.3 3620.1,2970 3620.1,2911.3 3315.2,2903.2 3313.7,2981.1 
		3511.2,2984.6 3520.5,2988.4 3532.5,2996.9 3537.1,3002.8 3542,3011.2 3544.4,3017.6 3545.2,3025.9 3545.2,3033.1 3545.2,3041.1 
		3544.2,3055.9 3541.7,3068.4 3538.1,3076.7 3534.5,3082.7 3528,3090.5 3520.7,3097.3 3513.2,3099.3 3326.9,3093.3 3313.4,3092 
		3294.9,3087.2 3280.5,3080.2 3270.4,3072.9 3261.4,3060.9 3255.9,3049.6 3250.4,3037.3 3248.3,3027.6 3247.3,3020.6 3254.6,2734.5 
		2854,2723.9 2833.5,3445.1 2935.9,3466.2 2984.3,3476.2 3003.7,3480.3 3016.6,3483.5 3022.3,3485.2 3034.1,3488.8 3045.7,3493 
		3051.6,3495.3 3059,3498.7 3064.4,3501.7 3071.9,3506.4 3079.4,3512 3085.6,3517.6 3090.1,3522.1 3094.4,3527.5 3098.5,3534.4 
		3103.1,3544.6 3106.4,3554.9 3108.2,3560.9 3109.5,3566.3 3110,3570.7 3130,3578.6 3180,3594.6 3213,3489.8 3237,3321 
		3246.3,3269.7 3254,3258 3267.7,3241 3283.1,3232.3 3297.1,3228.3 3326.8,3227 4096.1,3251 4119.8,3257 4136.5,3266.7 4152.8,3284 
		4163.1,3302.7 4171.1,3332 4175.1,3371.7 4178.8,3404.4 4177.8,3469 4165,3534.6 4124.5,3619.7 4075.4,3682 3990.7,3751 
		4068.6,3803.2 4140.8,3743.8 4142.7,3741.9 4201.3,3667.5 4251.1,3563 4272.8,3451.4 4271,3372.3 4276.6,3349.4 	"/>
	<polygon fill="#F4F4F4" points="3853,3863 3755,3965 3669,4057 3631,4082.5 3575.5,4073.5 3485.3,4031.5 3380.9,3990.2 
		3361.8,3973.9 3346.3,3953.3 3336.5,3929 3334.8,3903.9 3336.4,3889.1 3421.2,3635.2 3343.8,3613 3262.1,3860.7 3249.4,3882.8 
		3226,3905.5 3202,3914.5 3174.1,3919.2 3158.8,3918.6 3105.5,3904 3098.9,3900.1 3093.7,3891.7 3091.7,3883 3091.7,3871.8 
		3101.4,3844 3164.1,3665.3 3092,3642 3090.1,3645.1 3026.1,3826 3013.6,3845.7 2993.6,3856.5 2966.9,3859.5 2920.1,3848.5 
		2870.6,3824.5 2828.2,3796 2775.7,3747 2719.6,3701.5 2667.3,3659.5 2637.4,3642 2612.2,3629 2578,3617.2 2535.6,3604.6 
		2506.2,3600.7 2481.3,3599.3 2479.9,3708.4 2498,3710 2519.2,3714 2544,3723.9 2598,3758.4 2733,3873.9 2782.1,3909.9 
		2828.1,3932.9 3024.4,4005.9 3105.5,4026.6 3241,4068.4 3389.5,4133.4 3408.5,4146.4 3425.5,4163.4 3437.3,4182.3 3446.5,4203.9 
		3449.3,4223.9 3448,4241.4 3445.6,4260.8 3442,4275.9 3432,4296.9 3419.3,4314.2 3397,4333.4 3372,4348.4 3368.4,4349.8 
		3335.4,4353.6 3303.4,4355.9 2876.7,4353.1 2815.3,4352 2813.9,4352.5 2770.4,4352.6 2751.9,4359.7 2743,4364.4 2730.2,4372.6 
		2722.5,4379.9 2712.5,4391.9 2705.1,4406.2 2700.5,4421.9 2700.5,4614.4 2699.1,4624.6 2695,4633.4 2686.5,4646.5 2686.4,4646.6 
		2830.5,4649.9 2815.5,4635.9 2812.6,4627.9 2811.3,4621.6 2816.4,4471.6 2819.7,4455.6 2824.4,4448.3 2832.5,4444.8 2841.7,4443 
		2875.1,4444.2 3304.8,4446 3306.5,4446 3342.9,4443.4 3397.3,4437.2 3438,4423.6 3483.7,4397.7 3536.8,4351.7 3567.3,4317.4 
		3567.6,4317.1 3773,4067 3898.6,3946.6 3963.6,3889.5 4068.6,3803.2 3990.7,3751 	"/>
	<polygon fill="#F4F4F4" points="812,3759.4 818.5,3674.6 828.9,3617.4 842,3578.9 863.9,3542.8 878.3,3530.4 892.3,3520.3 
		911.2,3510 945.9,3494.6 1227.7,3392.4 1236.5,3391.6 1243.7,3392.2 1248,3393.1 1254,3397.6 1258.8,3402.2 1262.9,3410.1 
		1322.3,3629.7 1389.1,3610.1 1330.6,3392.8 1330,3379.4 1335.4,3367.6 1340.3,3363.2 1347.9,3359.1 1516.4,3362.6 1665.6,3368.1 
		1668.2,3293.6 1576.4,3290.1 1562.5,3288 1552.9,3282.8 1544.6,3276.6 1540.1,3270.5 1534.5,3257.5 1533,3231 1534.6,3170.9 
		1543.2,2697.7 1536.4,2644.4 1524.1,2596.5 1487.3,2553.3 1441.2,2528.8 1385,2512.3 901.7,2486.1 900.8,2486 816.4,2486 
		789.7,2480.7 780.1,2475.8 764.1,2462.2 758,2449.9 755,2435.8 766.4,2137.5 768.7,2126 773.9,2115 781.9,2109.1 790.9,2106.2 
		804.9,2106.6 814.9,2108.8 821.9,2115.2 827.2,2124.1 828.6,2136.6 820.6,2337.6 820.6,2351.6 822.7,2359.6 826.5,2365.5 
		837.6,2372.1 856.6,2373.6 892.1,2374.1 897.3,2206.2 933.8,2207.2 943.5,1879.4 1004.7,1881.1 1007.7,1767.8 881.9,1764.7 
		839.3,1764 830.5,1993.5 828,2009.2 823.5,2022.2 814.9,2027.9 799.9,2029.6 786.9,2027.4 779.9,2025.2 774.9,2019.1 771.4,2006.7 
		781.1,1722.6 783.5,1714 786,1707.1 792.5,1700.9 800.8,1694.7 811,1690.5 822.2,1688.6 833.6,1686.7 1013.2,1688.8 1014.3,1598.8 
		826.9,1596.6 814.2,1594.5 801.2,1588.2 793.4,1581.2 789.5,1574 788,1561.2 789.1,1541.3 791,1525.1 801.8,1512.7 812.8,1509.2 
		824.8,1506.2 883.8,1504.2 1000.8,1508.2 1030.5,1511.9 1054.6,1518.5 1070.4,1530.5 1083.9,1548.2 1124.3,1642.2 1134.9,1663.7 
		1151.9,1682 1170,1694.9 1192.9,1706.2 1245.9,1718.2 1323.9,1726.2 1324.9,1611.8 1257.7,1603.6 1225.9,1595.3 1213.9,1585.3 
		1199.9,1560.3 1169.9,1477.4 1158.6,1455.9 1142,1435 1115,1416 1099.7,1409.7 1072,1404.8 1020,1403.8 949,1403.8 903,1397 
		875,1390.5 849,1376 829,1360 813,1334 805.3,1314.7 801.2,1296.9 799.5,1263 802.7,1179.7 714.3,1179.7 684.8,2442.3 
		690.8,2470.2 703.3,2501.8 719.7,2519.5 740.7,2534.2 766.5,2547.5 809.5,2556 898.9,2556 937.5,2558.1 928.6,2839 998.6,2841.2 
		1007.4,2561.9 1373.1,2581.7 1414.6,2593.9 1442.6,2608.8 1460.3,2629.6 1467.5,2657.7 1473.1,2701.6 1457,3159.6 1447.5,3187.6 
		1433,3211.5 1415.5,3231.1 1389.7,3247.9 1366,3257.6 989.8,3396.9 981,3396.1 977.7,3393.8 976,3390.6 945.7,3316.4 954.3,3112.9 
		693.2,3105.3 692.4,3130.7 531.3,3126.4 506,3119 485.8,3100.7 465,3079.9 450.1,3054.7 432,3021.8 422,3433.7 434,3403.6 
		449.3,3367.7 463,3349 487.7,3330.7 506.4,3324.4 531.4,3318.4 556.9,3316.4 884,3327.7 891.7,3329.5 897.7,3332.7 902.6,3336.2 
		906.1,3340.4 931.8,3404.4 931.2,3410.5 930.1,3414.1 928.5,3416.8 924.4,3421.2 921.8,3422.1 855.8,3454.4 829.5,3468.1 
		805.2,3490.8 778.9,3525.1 768.6,3547.1 758.9,3574.8 754.6,3596.5 749.2,3665.9 742,3756 741.1,3799.9 811.6,3779.2 	"/>
	<polygon fill="#F4F4F4" points="1968.9,3587 1939.5,3591.9 1909.5,3598.8 1871.3,3612.9 1852.2,3623.4 1841.6,3628 1823.3,3639 
		1792.4,3659 1675.3,3742.6 1651.4,3760.7 1619.3,3784.1 1566.5,3802.7 1546.9,3811.1 1511.1,3816.1 1491.9,3819.3 1460.5,3818.1 
		1449.8,3813.2 1439.9,3798.6 1389.1,3610.1 1322.3,3629.7 1376.7,3830.5 1373,3841 1364,3847 1348,3854 964.4,3986.1 952,3988.1 
		933,3986.1 899,3979.1 871,3968.1 854.4,3956.3 838,3939 823.3,3914.9 816.7,3898 814.3,3879.3 810.8,3816.3 811.6,3779.2 
		741.1,3799.9 740.7,3817.5 744.5,3885.7 754.3,3962.2 771.5,4050.1 817.4,4146 885.9,4232.6 948.7,4284.7 1007.5,4317.2 
		1114.7,4352.7 1175.1,4366.6 1259,4380.8 1589,4396.4 1603.1,4400.1 1611,4407 1617,4418.3 1621,4431 1614,4593.5 1609,4603 
		1604,4609.5 1597.5,4614.5 1586,4621.6 1760,4625.6 1752.5,4621.5 1741,4614.5 1736.3,4608 1734,4598 1740.2,4415.5 1739,4396 
		1736.9,4380.4 1733,4368.5 1718,4347 1697,4331 1672.7,4321.3 1606.6,4321.1 1266.6,4311.1 1188.9,4298 1133.7,4285.3 
		1078.2,4266.9 1079.1,4267 1049.4,4253.5 1038.4,4241.8 1026,4225 1016.4,4199.9 1013,4183 1013,4150 1019,4129 1027,4110 
		1049,4080 1075,4061 1109,4044 1366.2,3975 1419,3961 1440.1,3956.2 1444.5,3955.2 1458.1,3953.7 1534.9,3932 1592.9,3911 
		1675.3,3878 1730.9,3849 1761.9,3831 1823.9,3783 1873.9,3743 1891.9,3730.5 1909.9,3719 1944.9,3705 1986.7,3696 2002.9,3696.2 
		2007.4,3584.4 	"/>
</g>
</svg>
